<svg width="393" height="96" viewBox="0 0 393 96" fill="none" xmlns="http://www.w3.org/2000/svg">
<g filter="url(#filter0_bd_590_19587)">
<rect width="393" height="83" transform="translate(0 13)" fill="white" fill-opacity="0.75" style="mix-blend-mode:hard-light"/>
<path fill-rule="evenodd" clip-rule="evenodd" d="M29.875 26.5361H36.25C36.8136 26.5361 37.3541 26.76 37.7526 27.1585C38.1511 27.557 38.375 28.0975 38.375 28.6611V35.0361C38.375 35.5997 38.1511 36.1402 37.7526 36.5387C37.3541 36.9372 36.8136 37.1611 36.25 37.1611H29.875C29.3114 37.1611 28.7709 36.9372 28.3724 36.5387C27.9739 36.1402 27.75 35.5997 27.75 35.0361V28.6611C27.75 28.0975 27.9739 27.557 28.3724 27.1585C28.7709 26.76 29.3114 26.5361 29.875 26.5361ZM29.875 35.0361H36.25V28.6611H29.875V35.0361ZM44.75 26.5361H51.125C51.6886 26.5361 52.2291 26.76 52.6276 27.1585C53.0261 27.557 53.25 28.0975 53.25 28.6611V35.0361C53.25 35.5997 53.0261 36.1402 52.6276 36.5387C52.2291 36.9372 51.6886 37.1611 51.125 37.1611H44.75C44.1864 37.1611 43.6459 36.9372 43.2474 36.5387C42.8489 36.1402 42.625 35.5997 42.625 35.0361V28.6611C42.625 28.0975 42.8489 27.557 43.2474 27.1585C43.6459 26.76 44.1864 26.5361 44.75 26.5361ZM44.75 35.0361H51.125V28.6611H44.75V35.0361ZM36.25 41.4111H29.875C29.3114 41.4111 28.7709 41.635 28.3724 42.0335C27.9739 42.432 27.75 42.9725 27.75 43.5361V49.9111C27.75 50.4747 27.9739 51.0152 28.3724 51.4137C28.7709 51.8122 29.3114 52.0361 29.875 52.0361H36.25C36.8136 52.0361 37.3541 51.8122 37.7526 51.4137C38.1511 51.0152 38.375 50.4747 38.375 49.9111V43.5361C38.375 42.9725 38.1511 42.432 37.7526 42.0335C37.3541 41.635 36.8136 41.4111 36.25 41.4111ZM36.25 49.9111H29.875V43.5361H36.25V49.9111ZM44.75 41.4111H51.125C51.6886 41.4111 52.2291 41.635 52.6276 42.0335C53.0261 42.432 53.25 42.9725 53.25 43.5361V49.9111C53.25 50.4747 53.0261 51.0152 52.6276 51.4137C52.2291 51.8122 51.6886 52.0361 51.125 52.0361H44.75C44.1864 52.0361 43.6459 51.8122 43.2474 51.4137C42.8489 51.0152 42.625 50.4747 42.625 49.9111V43.5361C42.625 42.9725 42.8489 42.432 43.2474 42.0335C43.6459 41.635 44.1864 41.4111 44.75 41.4111ZM44.75 49.9111H51.125V43.5361H44.75V49.9111Z" fill="#D5D6D7"/>
<path d="M14.6907 70.0361V63.0361H17.0807C17.9007 63.0361 18.5741 63.1828 19.1007 63.4761C19.6341 63.7628 20.0274 64.1695 20.2807 64.6961C20.5407 65.2161 20.6707 65.8295 20.6707 66.5361C20.6707 67.2428 20.5407 67.8595 20.2807 68.3861C20.0274 68.9061 19.6341 69.3128 19.1007 69.6061C18.5741 69.8928 17.9007 70.0361 17.0807 70.0361H14.6907ZM15.9707 68.9361H17.0207C17.6074 68.9361 18.0707 68.8428 18.4107 68.6561C18.7507 68.4628 18.9941 68.1895 19.1407 67.8361C19.2874 67.4761 19.3607 67.0428 19.3607 66.5361C19.3607 66.0361 19.2874 65.6061 19.1407 65.2461C18.9941 64.8861 18.7507 64.6095 18.4107 64.4161C18.0707 64.2228 17.6074 64.1261 17.0207 64.1261H15.9707V68.9361ZM23.4801 70.1561C23.0535 70.1561 22.7035 70.0895 22.4301 69.9561C22.1568 69.8161 21.9535 69.6328 21.8201 69.4061C21.6868 69.1795 21.6201 68.9295 21.6201 68.6561C21.6201 68.1961 21.8001 67.8228 22.1601 67.5361C22.5201 67.2495 23.0601 67.1061 23.7801 67.1061H25.0401V66.9861C25.0401 66.6461 24.9435 66.3961 24.7501 66.2361C24.5568 66.0761 24.3168 65.9961 24.0301 65.9961C23.7701 65.9961 23.5435 66.0595 23.3501 66.1861C23.1568 66.3061 23.0368 66.4861 22.9901 66.7261H21.7401C21.7735 66.3661 21.8935 66.0528 22.1001 65.7861C22.3135 65.5195 22.5868 65.3161 22.9201 65.1761C23.2535 65.0295 23.6268 64.9561 24.0401 64.9561C24.7468 64.9561 25.3035 65.1328 25.7101 65.4861C26.1168 65.8395 26.3201 66.3395 26.3201 66.9861V70.0361H25.2301L25.1101 69.2361C24.9635 69.5028 24.7568 69.7228 24.4901 69.8961C24.2301 70.0695 23.8935 70.1561 23.4801 70.1561ZM23.7701 69.1561C24.1368 69.1561 24.4201 69.0361 24.6201 68.7961C24.8268 68.5561 24.9568 68.2595 25.0101 67.9061H23.9201C23.5801 67.9061 23.3368 67.9695 23.1901 68.0961C23.0435 68.2161 22.9701 68.3661 22.9701 68.5461C22.9701 68.7395 23.0435 68.8895 23.1901 68.9961C23.3368 69.1028 23.5301 69.1561 23.7701 69.1561ZM29.5916 70.1561C29.1516 70.1561 28.7649 70.0861 28.4316 69.9461C28.0983 69.7995 27.8316 69.5995 27.6316 69.3461C27.4316 69.0928 27.3116 68.7995 27.2716 68.4661H28.5616C28.6016 68.6595 28.7083 68.8261 28.8816 68.9661C29.0616 69.0995 29.2916 69.1661 29.5716 69.1661C29.8516 69.1661 30.0549 69.1095 30.1816 68.9961C30.3149 68.8828 30.3816 68.7528 30.3816 68.6061C30.3816 68.3928 30.2883 68.2495 30.1016 68.1761C29.9149 68.0961 29.6549 68.0195 29.3216 67.9461C29.1083 67.8995 28.8916 67.8428 28.6716 67.7761C28.4516 67.7095 28.2483 67.6261 28.0616 67.5261C27.8816 67.4195 27.7349 67.2861 27.6216 67.1261C27.5083 66.9595 27.4516 66.7561 27.4516 66.5161C27.4516 66.0761 27.6249 65.7061 27.9716 65.4061C28.3249 65.1061 28.8183 64.9561 29.4516 64.9561C30.0383 64.9561 30.5049 65.0928 30.8516 65.3661C31.2049 65.6395 31.4149 66.0161 31.4816 66.4961H30.2716C30.1983 66.1295 29.9216 65.9461 29.4416 65.9461C29.2016 65.9461 29.0149 65.9928 28.8816 66.0861C28.7549 66.1795 28.6916 66.2961 28.6916 66.4361C28.6916 66.5828 28.7883 66.6995 28.9816 66.7861C29.1749 66.8728 29.4316 66.9528 29.7516 67.0261C30.0983 67.1061 30.4149 67.1961 30.7016 67.2961C30.9949 67.3895 31.2283 67.5328 31.4016 67.7261C31.5749 67.9128 31.6616 68.1828 31.6616 68.5361C31.6683 68.8428 31.5883 69.1195 31.4216 69.3661C31.2549 69.6128 31.0149 69.8061 30.7016 69.9461C30.3883 70.0861 30.0183 70.1561 29.5916 70.1561ZM32.7955 70.0361V62.8361H34.0755V65.8361C34.2422 65.5628 34.4655 65.3495 34.7455 65.1961C35.0322 65.0361 35.3588 64.9561 35.7255 64.9561C36.3388 64.9561 36.8122 65.1495 37.1455 65.5361C37.4855 65.9228 37.6555 66.4895 37.6555 67.2361V70.0361H36.3855V67.3561C36.3855 66.9295 36.2988 66.6028 36.1255 66.3761C35.9588 66.1495 35.6922 66.0361 35.3255 66.0361C34.9655 66.0361 34.6655 66.1628 34.4255 66.4161C34.1922 66.6695 34.0755 67.0228 34.0755 67.4761V70.0361H32.7955ZM41.8195 70.1561C41.4462 70.1561 41.1195 70.0861 40.8395 69.9461C40.5595 69.8061 40.3328 69.6095 40.1595 69.3561L40.0195 70.0361H38.8795V62.8361H40.1595V65.7861C40.3195 65.5661 40.5295 65.3728 40.7895 65.2061C41.0562 65.0395 41.3995 64.9561 41.8195 64.9561C42.2862 64.9561 42.7028 65.0695 43.0695 65.2961C43.4362 65.5228 43.7262 65.8328 43.9395 66.2261C44.1528 66.6195 44.2595 67.0661 44.2595 67.5661C44.2595 68.0661 44.1528 68.5128 43.9395 68.9061C43.7262 69.2928 43.4362 69.5995 43.0695 69.8261C42.7028 70.0461 42.2862 70.1561 41.8195 70.1561ZM41.5495 69.0361C41.9562 69.0361 42.2928 68.8995 42.5595 68.6261C42.8262 68.3528 42.9595 67.9995 42.9595 67.5661C42.9595 67.1328 42.8262 66.7761 42.5595 66.4961C42.2928 66.2161 41.9562 66.0761 41.5495 66.0761C41.1362 66.0761 40.7962 66.2161 40.5295 66.4961C40.2695 66.7695 40.1395 67.1228 40.1395 67.5561C40.1395 67.9895 40.2695 68.3461 40.5295 68.6261C40.7962 68.8995 41.1362 69.0361 41.5495 69.0361ZM47.7829 70.1561C47.3029 70.1561 46.8696 70.0461 46.4829 69.8261C46.1029 69.6061 45.7996 69.3028 45.5729 68.9161C45.3529 68.5228 45.2429 68.0695 45.2429 67.5561C45.2429 67.0428 45.3563 66.5928 45.5829 66.2061C45.8096 65.8128 46.1129 65.5061 46.4929 65.2861C46.8796 65.0661 47.3129 64.9561 47.7929 64.9561C48.2663 64.9561 48.6929 65.0661 49.0729 65.2861C49.4596 65.5061 49.7629 65.8128 49.9829 66.2061C50.2096 66.5928 50.3229 67.0428 50.3229 67.5561C50.3229 68.0695 50.2096 68.5228 49.9829 68.9161C49.7629 69.3028 49.4596 69.6061 49.0729 69.8261C48.6863 70.0461 48.2563 70.1561 47.7829 70.1561ZM47.7829 69.0461C48.1163 69.0461 48.4063 68.9228 48.6529 68.6761C48.8996 68.4228 49.0229 68.0495 49.0229 67.5561C49.0229 67.0628 48.8996 66.6928 48.6529 66.4461C48.4063 66.1928 48.1196 66.0661 47.7929 66.0661C47.4529 66.0661 47.1596 66.1928 46.9129 66.4461C46.6729 66.6928 46.5529 67.0628 46.5529 67.5561C46.5529 68.0495 46.6729 68.4228 46.9129 68.6761C47.1596 68.9228 47.4496 69.0461 47.7829 69.0461ZM53.1774 70.1561C52.7507 70.1561 52.4007 70.0895 52.1274 69.9561C51.854 69.8161 51.6507 69.6328 51.5174 69.4061C51.384 69.1795 51.3174 68.9295 51.3174 68.6561C51.3174 68.1961 51.4974 67.8228 51.8574 67.5361C52.2174 67.2495 52.7574 67.1061 53.4774 67.1061H54.7374V66.9861C54.7374 66.6461 54.6407 66.3961 54.4474 66.2361C54.254 66.0761 54.014 65.9961 53.7274 65.9961C53.4674 65.9961 53.2407 66.0595 53.0474 66.1861C52.854 66.3061 52.734 66.4861 52.6874 66.7261H51.4374C51.4707 66.3661 51.5907 66.0528 51.7974 65.7861C52.0107 65.5195 52.284 65.3161 52.6174 65.1761C52.9507 65.0295 53.324 64.9561 53.7374 64.9561C54.444 64.9561 55.0007 65.1328 55.4074 65.4861C55.814 65.8395 56.0174 66.3395 56.0174 66.9861V70.0361H54.9274L54.8074 69.2361C54.6607 69.5028 54.454 69.7228 54.1874 69.8961C53.9274 70.0695 53.5907 70.1561 53.1774 70.1561ZM53.4674 69.1561C53.834 69.1561 54.1174 69.0361 54.3174 68.7961C54.524 68.5561 54.654 68.2595 54.7074 67.9061H53.6174C53.2774 67.9061 53.034 67.9695 52.8874 68.0961C52.7407 68.2161 52.6674 68.3661 52.6674 68.5461C52.6674 68.7395 52.7407 68.8895 52.8874 68.9961C53.034 69.1028 53.2274 69.1561 53.4674 69.1561ZM57.2389 70.0361V65.0761H58.3789L58.4989 66.0061C58.6789 65.6861 58.9222 65.4328 59.2289 65.2461C59.5422 65.0528 59.9089 64.9561 60.3289 64.9561V66.3061H59.9689C59.6889 66.3061 59.4389 66.3495 59.2189 66.4361C58.9989 66.5228 58.8255 66.6728 58.6989 66.8861C58.5789 67.0995 58.5189 67.3961 58.5189 67.7761V70.0361H57.2389ZM63.3958 70.1561C62.9292 70.1561 62.5125 70.0428 62.1458 69.8161C61.7792 69.5895 61.4892 69.2795 61.2758 68.8861C61.0625 68.4928 60.9558 68.0461 60.9558 67.5461C60.9558 67.0461 61.0625 66.6028 61.2758 66.2161C61.4892 65.8228 61.7792 65.5161 62.1458 65.2961C62.5125 65.0695 62.9292 64.9561 63.3958 64.9561C63.7692 64.9561 64.0958 65.0261 64.3758 65.1661C64.6558 65.3061 64.8825 65.5028 65.0558 65.7561V62.8361H66.3358V70.0361H65.1958L65.0558 69.3261C64.8958 69.5461 64.6825 69.7395 64.4158 69.9061C64.1558 70.0728 63.8158 70.1561 63.3958 70.1561ZM63.6658 69.0361C64.0792 69.0361 64.4158 68.8995 64.6758 68.6261C64.9425 68.3461 65.0758 67.9895 65.0758 67.5561C65.0758 67.1228 64.9425 66.7695 64.6758 66.4961C64.4158 66.2161 64.0792 66.0761 63.6658 66.0761C63.2592 66.0761 62.9225 66.2128 62.6558 66.4861C62.3892 66.7595 62.2558 67.1128 62.2558 67.5461C62.2558 67.9795 62.3892 68.3361 62.6558 68.6161C62.9225 68.8961 63.2592 69.0361 63.6658 69.0361Z" fill="#D5D6D7"/>
<path fill-rule="evenodd" clip-rule="evenodd" d="M123.812 26.4111H128.062C128.626 26.4111 129.167 26.635 129.565 27.0335C129.964 27.432 130.188 27.9725 130.188 28.5361V37.0361H128.062V28.5361H123.812V30.6611H121.688V28.5361H113.188V30.6611H111.062V28.5361H106.812V49.7861H115.312V51.9111H106.812C106.249 51.9111 105.708 51.6872 105.31 51.2887C104.911 50.8902 104.688 50.3497 104.688 49.7861V28.5361C104.688 27.9725 104.911 27.432 105.31 27.0335C105.708 26.635 106.249 26.4111 106.812 26.4111H111.062V24.2861H113.188V26.4111H121.688V24.2861H123.812V26.4111ZM128.062 48.7236C127.306 48.7196 126.565 48.5116 125.917 48.1215L120.002 54.0361L118.5 52.5338L124.415 46.6189C124.025 45.9711 123.817 45.2299 123.812 44.4736C123.814 43.3469 124.262 42.2666 125.059 41.4698C125.855 40.6731 126.936 40.2249 128.062 40.2236C128.43 40.2286 128.795 40.2819 129.149 40.3821L126.56 42.9712L126.561 42.9717C126.363 43.1689 126.207 43.4031 126.1 43.6608C125.993 43.9185 125.938 44.1947 125.938 44.4736C125.938 44.7526 125.993 45.0288 126.1 45.2865C126.207 45.5442 126.363 45.7783 126.561 45.9756C126.758 46.1728 126.992 46.3293 127.25 46.436C127.507 46.5428 127.784 46.5977 128.062 46.5977C128.341 46.5977 128.618 46.5428 128.875 46.436C129.133 46.3293 129.367 46.1728 129.564 45.9756L129.565 45.9761L132.154 43.3869C132.254 43.7406 132.308 44.106 132.312 44.4736C132.311 45.6004 131.863 46.6807 131.066 47.4774C130.27 48.2742 129.189 48.7224 128.062 48.7236Z" fill="#367CFF"/>
<path d="M91.6807 70.1611V63.1611H92.7407V70.1611H91.6807ZM94.1212 70.1611V65.2011H95.0612L95.1412 66.0711C95.2945 65.7645 95.5178 65.5245 95.8112 65.3511C96.1112 65.1711 96.4545 65.0811 96.8412 65.0811C97.4412 65.0811 97.9112 65.2678 98.2512 65.6411C98.5978 66.0145 98.7712 66.5711 98.7712 67.3111V70.1611H97.7212V67.4211C97.7212 66.4611 97.3278 65.9811 96.5412 65.9811C96.1478 65.9811 95.8212 66.1211 95.5612 66.4011C95.3078 66.6811 95.1812 67.0811 95.1812 67.6011V70.1611H94.1212ZM102 70.2811C101.373 70.2811 100.856 70.1278 100.45 69.8211C100.043 69.5145 99.8096 69.1078 99.7496 68.6011H100.82C100.873 68.8278 101 69.0245 101.2 69.1911C101.4 69.3511 101.663 69.4311 101.99 69.4311C102.31 69.4311 102.543 69.3645 102.69 69.2311C102.836 69.0978 102.91 68.9445 102.91 68.7711C102.91 68.5178 102.806 68.3478 102.6 68.2611C102.4 68.1678 102.12 68.0845 101.76 68.0111C101.48 67.9511 101.2 67.8711 100.92 67.7711C100.646 67.6711 100.416 67.5311 100.23 67.3511C100.05 67.1645 99.9596 66.9145 99.9596 66.6011C99.9596 66.1678 100.126 65.8078 100.46 65.5211C100.793 65.2278 101.26 65.0811 101.86 65.0811C102.413 65.0811 102.86 65.2145 103.2 65.4811C103.546 65.7478 103.75 66.1245 103.81 66.6111H102.79C102.756 66.3978 102.656 66.2311 102.49 66.1111C102.33 65.9911 102.113 65.9311 101.84 65.9311C101.573 65.9311 101.366 65.9878 101.22 66.1011C101.073 66.2078 101 66.3478 101 66.5211C101 66.6945 101.1 66.8311 101.3 66.9311C101.506 67.0311 101.776 67.1211 102.11 67.2011C102.443 67.2745 102.75 67.3611 103.03 67.4611C103.316 67.5545 103.546 67.6945 103.72 67.8811C103.893 68.0678 103.98 68.3411 103.98 68.7011C103.986 69.1545 103.81 69.5311 103.45 69.8311C103.096 70.1311 102.613 70.2811 102 70.2811ZM105.137 72.3611V65.2011H106.087L106.197 65.9711C106.357 65.7378 106.577 65.5311 106.857 65.3511C107.137 65.1711 107.497 65.0811 107.937 65.0811C108.417 65.0811 108.84 65.1945 109.207 65.4211C109.573 65.6478 109.86 65.9578 110.067 66.3511C110.28 66.7445 110.387 67.1911 110.387 67.6911C110.387 68.1911 110.28 68.6378 110.067 69.0311C109.86 69.4178 109.573 69.7245 109.207 69.9511C108.84 70.1711 108.413 70.2811 107.927 70.2811C107.54 70.2811 107.197 70.2045 106.897 70.0511C106.603 69.8978 106.37 69.6811 106.197 69.4011V72.3611H105.137ZM107.747 69.3611C108.2 69.3611 108.573 69.2078 108.867 68.9011C109.16 68.5878 109.307 68.1811 109.307 67.6811C109.307 67.3545 109.24 67.0645 109.107 66.8111C108.973 66.5578 108.79 66.3611 108.557 66.2211C108.323 66.0745 108.053 66.0011 107.747 66.0011C107.293 66.0011 106.92 66.1578 106.627 66.4711C106.34 66.7845 106.197 67.1878 106.197 67.6811C106.197 68.1811 106.34 68.5878 106.627 68.9011C106.92 69.2078 107.293 69.3611 107.747 69.3611ZM113.853 70.2811C113.367 70.2811 112.933 70.1745 112.553 69.9611C112.18 69.7411 111.887 69.4378 111.673 69.0511C111.46 68.6645 111.353 68.2145 111.353 67.7011C111.353 67.1811 111.457 66.7245 111.663 66.3311C111.877 65.9378 112.17 65.6311 112.543 65.4111C112.923 65.1911 113.363 65.0811 113.863 65.0811C114.35 65.0811 114.773 65.1911 115.133 65.4111C115.493 65.6245 115.773 65.9111 115.973 66.2711C116.173 66.6311 116.273 67.0278 116.273 67.4611C116.273 67.5278 116.27 67.6011 116.263 67.6811C116.263 67.7545 116.26 67.8378 116.253 67.9311H112.393C112.427 68.4111 112.583 68.7778 112.863 69.0311C113.15 69.2778 113.48 69.4011 113.853 69.4011C114.153 69.4011 114.403 69.3345 114.603 69.2011C114.81 69.0611 114.963 68.8745 115.063 68.6411H116.123C115.99 69.1078 115.723 69.4978 115.323 69.8111C114.93 70.1245 114.44 70.2811 113.853 70.2811ZM113.853 65.9511C113.5 65.9511 113.187 66.0578 112.913 66.2711C112.64 66.4778 112.473 66.7911 112.413 67.2111H115.213C115.193 66.8245 115.057 66.5178 114.803 66.2911C114.55 66.0645 114.233 65.9511 113.853 65.9511ZM119.723 70.2811C119.236 70.2811 118.8 70.1711 118.413 69.9511C118.033 69.7311 117.733 69.4278 117.513 69.0411C117.3 68.6478 117.193 68.1945 117.193 67.6811C117.193 67.1678 117.3 66.7178 117.513 66.3311C117.733 65.9378 118.033 65.6311 118.413 65.4111C118.8 65.1911 119.236 65.0811 119.723 65.0811C120.336 65.0811 120.85 65.2411 121.263 65.5611C121.683 65.8811 121.953 66.3145 122.073 66.8611H120.963C120.896 66.5878 120.75 66.3745 120.523 66.2211C120.296 66.0678 120.03 65.9911 119.723 65.9911C119.463 65.9911 119.223 66.0578 119.003 66.1911C118.783 66.3178 118.606 66.5078 118.473 66.7611C118.34 67.0078 118.273 67.3145 118.273 67.6811C118.273 68.0478 118.34 68.3578 118.473 68.6111C118.606 68.8578 118.783 69.0478 119.003 69.1811C119.223 69.3145 119.463 69.3811 119.723 69.3811C120.03 69.3811 120.296 69.3045 120.523 69.1511C120.75 68.9978 120.896 68.7811 120.963 68.5011H122.073C121.96 69.0345 121.693 69.4645 121.273 69.7911C120.853 70.1178 120.336 70.2811 119.723 70.2811ZM125.205 70.1611C124.718 70.1611 124.332 70.0445 124.045 69.8111C123.758 69.5711 123.615 69.1478 123.615 68.5411V66.0911H122.765V65.2011H123.615L123.745 63.9411H124.675V65.2011H126.075V66.0911H124.675V68.5411C124.675 68.8145 124.732 69.0045 124.845 69.1111C124.965 69.2111 125.168 69.2611 125.455 69.2611H126.025V70.1611H125.205ZM127.768 64.2611C127.568 64.2611 127.401 64.2011 127.268 64.0811C127.141 63.9545 127.078 63.7978 127.078 63.6111C127.078 63.4245 127.141 63.2711 127.268 63.1511C127.401 63.0245 127.568 62.9611 127.768 62.9611C127.968 62.9611 128.131 63.0245 128.258 63.1511C128.391 63.2711 128.458 63.4245 128.458 63.6111C128.458 63.7978 128.391 63.9545 128.258 64.0811C128.131 64.2011 127.968 64.2611 127.768 64.2611ZM127.238 70.1611V65.2011H128.298V70.1611H127.238ZM132.017 70.2811C131.544 70.2811 131.117 70.1745 130.737 69.9611C130.364 69.7411 130.067 69.4378 129.847 69.0511C129.627 68.6578 129.517 68.2011 129.517 67.6811C129.517 67.1611 129.627 66.7078 129.847 66.3211C130.074 65.9278 130.377 65.6245 130.757 65.4111C131.137 65.1911 131.561 65.0811 132.027 65.0811C132.501 65.0811 132.924 65.1911 133.297 65.4111C133.677 65.6245 133.977 65.9278 134.197 66.3211C134.424 66.7078 134.537 67.1611 134.537 67.6811C134.537 68.2011 134.424 68.6578 134.197 69.0511C133.977 69.4378 133.677 69.7411 133.297 69.9611C132.917 70.1745 132.491 70.2811 132.017 70.2811ZM132.017 69.3711C132.271 69.3711 132.504 69.3078 132.717 69.1811C132.937 69.0545 133.114 68.8678 133.247 68.6211C133.381 68.3678 133.447 68.0545 133.447 67.6811C133.447 67.3078 133.381 66.9978 133.247 66.7511C133.121 66.4978 132.947 66.3078 132.727 66.1811C132.514 66.0545 132.281 65.9911 132.027 65.9911C131.774 65.9911 131.537 66.0545 131.317 66.1811C131.104 66.3078 130.931 66.4978 130.797 66.7511C130.664 66.9978 130.597 67.3078 130.597 67.6811C130.597 68.0545 130.664 68.3678 130.797 68.6211C130.931 68.8678 131.104 69.0545 131.317 69.1811C131.531 69.3078 131.764 69.3711 132.017 69.3711ZM135.684 70.1611V65.2011H136.624L136.704 66.0711C136.857 65.7645 137.08 65.5245 137.374 65.3511C137.674 65.1711 138.017 65.0811 138.404 65.0811C139.004 65.0811 139.474 65.2678 139.814 65.6411C140.16 66.0145 140.334 66.5711 140.334 67.3111V70.1611H139.284V67.4211C139.284 66.4611 138.89 65.9811 138.104 65.9811C137.71 65.9811 137.384 66.1211 137.124 66.4011C136.87 66.6811 136.744 67.0811 136.744 67.6011V70.1611H135.684ZM143.562 70.2811C142.935 70.2811 142.419 70.1278 142.012 69.8211C141.605 69.5145 141.372 69.1078 141.312 68.6011H142.382C142.435 68.8278 142.562 69.0245 142.762 69.1911C142.962 69.3511 143.225 69.4311 143.552 69.4311C143.872 69.4311 144.105 69.3645 144.252 69.2311C144.399 69.0978 144.472 68.9445 144.472 68.7711C144.472 68.5178 144.369 68.3478 144.162 68.2611C143.962 68.1678 143.682 68.0845 143.322 68.0111C143.042 67.9511 142.762 67.8711 142.482 67.7711C142.209 67.6711 141.979 67.5311 141.792 67.3511C141.612 67.1645 141.522 66.9145 141.522 66.6011C141.522 66.1678 141.689 65.8078 142.022 65.5211C142.355 65.2278 142.822 65.0811 143.422 65.0811C143.975 65.0811 144.422 65.2145 144.762 65.4811C145.109 65.7478 145.312 66.1245 145.372 66.6111H144.352C144.319 66.3978 144.219 66.2311 144.052 66.1111C143.892 65.9911 143.675 65.9311 143.402 65.9311C143.135 65.9311 142.929 65.9878 142.782 66.1011C142.635 66.2078 142.562 66.3478 142.562 66.5211C142.562 66.6945 142.662 66.8311 142.862 66.9311C143.069 67.0311 143.339 67.1211 143.672 67.2011C144.005 67.2745 144.312 67.3611 144.592 67.4611C144.879 67.5545 145.109 67.6945 145.282 67.8811C145.455 68.0678 145.542 68.3411 145.542 68.7011C145.549 69.1545 145.372 69.5311 145.012 69.8311C144.659 70.1311 144.175 70.2811 143.562 70.2811Z" fill="#367CFF"/>
<path d="M196.506 22.1611C187.035 22.1611 179.506 29.6897 179.506 39.1612C179.506 48.6326 187.035 56.1612 196.506 56.1612C205.978 56.1612 213.506 48.6326 213.506 39.1612C213.506 29.6897 205.978 22.1611 196.506 22.1611Z" fill="#FF0000"/>
<g clip-path="url(#clip0_590_19587)">
<path d="M193.145 38.9777C193.145 38.3231 193.142 37.6685 193.146 37.0138C193.154 35.6171 194.244 34.6746 195.86 34.6753C196.437 34.6753 197.02 34.6182 197.587 34.719C198.817 34.9372 199.643 35.8067 199.661 36.925C199.683 38.2839 199.683 39.6429 199.662 41.0019C199.642 42.2793 198.629 43.1866 197.145 43.2602C196.476 43.2934 195.797 43.3358 195.134 43.2025C193.997 42.9737 193.205 42.14 193.151 41.1405C193.149 41.0994 193.145 41.0576 193.145 41.0165C193.145 40.3367 193.145 39.6568 193.145 38.9777Z" fill="white"/>
<path d="M188.763 34.6699C189.952 34.723 190.979 35.0486 191.645 35.9652C191.88 36.2889 191.974 36.6517 191.984 37.0291C191.995 37.4529 191.642 37.7885 191.171 37.8196C190.713 37.8502 190.301 37.5464 190.266 37.1193C190.233 36.7134 189.987 36.46 189.572 36.3134C189.055 36.1317 188.527 36.1019 188 36.2823C187.637 36.4063 187.435 36.6417 187.39 36.976C187.341 37.3322 187.487 37.6014 187.851 37.7911C188.265 38.0067 188.719 38.1373 189.171 38.2733C189.66 38.4205 190.149 38.5658 190.601 38.7893C191.708 39.3378 192.204 40.1828 192.023 41.2088C191.845 42.2222 191.037 42.973 189.82 43.1839C188.54 43.4054 187.372 43.1952 186.418 42.3774C185.954 41.9801 185.74 41.4807 185.723 40.9216C185.709 40.4832 186.07 40.141 186.549 40.1191C187.025 40.0972 187.415 40.4083 187.449 40.8526C187.471 41.1511 187.625 41.3773 187.917 41.5238C188.481 41.8064 189.078 41.8521 189.69 41.6598C190.081 41.5371 190.284 41.2804 190.323 40.9276C190.361 40.5893 190.206 40.332 189.871 40.1536C189.31 39.8545 188.674 39.7152 188.064 39.5195C187.374 39.298 186.715 39.0314 186.232 38.5306C184.998 37.2486 185.765 35.2728 187.68 34.7966C188.033 34.7091 188.394 34.6706 188.763 34.6699Z" fill="white"/>
<path d="M204.049 34.6694C205.271 34.7205 206.324 35.0515 206.986 36.0112C207.212 36.3388 207.303 36.7029 207.295 37.081C207.286 37.4756 206.926 37.7906 206.48 37.8185C206.058 37.845 205.644 37.5578 205.576 37.1911C205.459 36.5696 205.238 36.3567 204.527 36.2135C204.116 36.1312 203.706 36.1405 203.309 36.2804C202.924 36.4171 202.728 36.6718 202.694 37.0239C202.661 37.3648 202.827 37.6109 203.163 37.7886C203.676 38.0599 204.252 38.1939 204.809 38.3703C205.178 38.4877 205.545 38.6084 205.888 38.7749C206.995 39.3121 207.521 40.1823 207.346 41.1844C207.167 42.2105 206.355 42.9758 205.13 43.1808C203.713 43.4176 202.452 43.1596 201.507 42.1455C201.172 41.7853 201.041 41.3509 201.035 40.8939C201.028 40.4801 201.375 40.1531 201.833 40.1186C202.263 40.0861 202.672 40.36 202.747 40.7308C202.878 41.3788 203.106 41.595 203.844 41.7303C204.235 41.8019 204.627 41.7906 205.006 41.6593C205.367 41.534 205.578 41.3058 205.627 40.9729C205.68 40.6187 205.54 40.3395 205.179 40.1504C204.616 39.8553 203.98 39.7147 203.371 39.5177C202.985 39.393 202.604 39.2557 202.256 39.0614C201.296 38.5255 200.841 37.7714 200.985 36.7852C201.138 35.7445 201.857 35.1085 202.993 34.7968C203.336 34.7039 203.689 34.6741 204.049 34.6694Z" fill="white"/>
<path d="M194.873 38.9776C194.873 38.3144 194.87 37.6518 194.874 36.9886C194.877 36.4507 195.213 36.1675 195.842 36.1648C196.236 36.1629 196.631 36.1595 197.025 36.1655C197.559 36.1735 197.924 36.4653 197.928 36.9249C197.939 38.2925 197.939 39.6594 197.927 41.027C197.923 41.4635 197.578 41.7573 197.071 41.7772C196.63 41.7944 196.185 41.7931 195.744 41.7778C195.203 41.7586 194.88 41.4615 194.876 40.9919C194.869 40.32 194.874 39.6488 194.873 38.9776Z" fill="#FF0000"/>
</g>
<path d="M170.628 70.1611V63.1611H175.078V64.0211H171.688V66.2011H174.778V67.0411H171.688V69.3011H175.078V70.1611H170.628ZM176.301 70.1611V65.2011H177.241L177.331 65.9011C177.491 65.6478 177.701 65.4478 177.961 65.3011C178.228 65.1545 178.534 65.0811 178.881 65.0811C179.668 65.0811 180.214 65.3911 180.521 66.0111C180.701 65.7245 180.941 65.4978 181.241 65.3311C181.548 65.1645 181.878 65.0811 182.231 65.0811C182.851 65.0811 183.338 65.2678 183.691 65.6411C184.044 66.0145 184.221 66.5711 184.221 67.3111V70.1611H183.161V67.4211C183.161 66.4611 182.794 65.9811 182.061 65.9811C181.688 65.9811 181.381 66.1211 181.141 66.4011C180.908 66.6811 180.791 67.0811 180.791 67.6011V70.1611H179.731V67.4211C179.731 66.4611 179.361 65.9811 178.621 65.9811C178.254 65.9811 177.951 66.1211 177.711 66.4011C177.478 66.6811 177.361 67.0811 177.361 67.6011V70.1611H176.301ZM187.781 70.2811C187.294 70.2811 186.861 70.1745 186.481 69.9611C186.108 69.7411 185.814 69.4378 185.601 69.0511C185.388 68.6645 185.281 68.2145 185.281 67.7011C185.281 67.1811 185.384 66.7245 185.591 66.3311C185.804 65.9378 186.098 65.6311 186.471 65.4111C186.851 65.1911 187.291 65.0811 187.791 65.0811C188.278 65.0811 188.701 65.1911 189.061 65.4111C189.421 65.6245 189.701 65.9111 189.901 66.2711C190.101 66.6311 190.201 67.0278 190.201 67.4611C190.201 67.5278 190.198 67.6011 190.191 67.6811C190.191 67.7545 190.188 67.8378 190.181 67.9311H186.321C186.354 68.4111 186.511 68.7778 186.791 69.0311C187.078 69.2778 187.408 69.4011 187.781 69.4011C188.081 69.4011 188.331 69.3345 188.531 69.2011C188.738 69.0611 188.891 68.8745 188.991 68.6411H190.051C189.918 69.1078 189.651 69.4978 189.251 69.8111C188.858 70.1245 188.368 70.2811 187.781 70.2811ZM187.781 65.9511C187.428 65.9511 187.114 66.0578 186.841 66.2711C186.568 66.4778 186.401 66.7911 186.341 67.2111H189.141C189.121 66.8245 188.984 66.5178 188.731 66.2911C188.478 66.0645 188.161 65.9511 187.781 65.9511ZM191.301 70.1611V65.2011H192.251L192.341 66.1411C192.514 65.8145 192.754 65.5578 193.061 65.3711C193.374 65.1778 193.751 65.0811 194.191 65.0811V66.1911H193.901C193.608 66.1911 193.344 66.2411 193.111 66.3411C192.884 66.4345 192.701 66.5978 192.561 66.8311C192.428 67.0578 192.361 67.3745 192.361 67.7811V70.1611H191.301ZM197.013 68.6411C196.753 68.6411 196.513 68.6111 196.293 68.5511L195.863 68.9711C195.936 69.0178 196.026 69.0578 196.133 69.0911C196.239 69.1245 196.389 69.1545 196.583 69.1811C196.776 69.2078 197.039 69.2345 197.373 69.2611C198.033 69.3211 198.509 69.4811 198.803 69.7411C199.096 69.9945 199.243 70.3345 199.243 70.7611C199.243 71.0545 199.163 71.3311 199.003 71.5911C198.849 71.8578 198.606 72.0711 198.273 72.2311C197.946 72.3978 197.526 72.4811 197.013 72.4811C196.319 72.4811 195.756 72.3478 195.323 72.0811C194.896 71.8211 194.683 71.4245 194.683 70.8911C194.683 70.6845 194.736 70.4778 194.843 70.2711C194.956 70.0711 195.133 69.8811 195.373 69.7011C195.233 69.6411 195.109 69.5778 195.003 69.5111C194.903 69.4378 194.813 69.3645 194.733 69.2911V69.0511L195.593 68.1711C195.206 67.8378 195.013 67.4011 195.013 66.8611C195.013 66.5345 195.089 66.2378 195.243 65.9711C195.403 65.6978 195.633 65.4811 195.933 65.3211C196.233 65.1611 196.593 65.0811 197.013 65.0811C197.293 65.0811 197.553 65.1211 197.793 65.2011H199.643V65.9011L198.763 65.9511C198.923 66.2245 199.003 66.5278 199.003 66.8611C199.003 67.1945 198.923 67.4945 198.763 67.7611C198.609 68.0278 198.383 68.2411 198.083 68.4011C197.789 68.5611 197.433 68.6411 197.013 68.6411ZM197.013 67.8111C197.319 67.8111 197.566 67.7311 197.753 67.5711C197.946 67.4045 198.043 67.1711 198.043 66.8711C198.043 66.5645 197.946 66.3311 197.753 66.1711C197.566 66.0111 197.319 65.9311 197.013 65.9311C196.699 65.9311 196.446 66.0111 196.253 66.1711C196.066 66.3311 195.973 66.5645 195.973 66.8711C195.973 67.1711 196.066 67.4045 196.253 67.5711C196.446 67.7311 196.699 67.8111 197.013 67.8111ZM195.683 70.7911C195.683 71.0778 195.809 71.2911 196.063 71.4311C196.316 71.5778 196.633 71.6511 197.013 71.6511C197.379 71.6511 197.676 71.5711 197.903 71.4111C198.129 71.2578 198.243 71.0511 198.243 70.7911C198.243 70.5978 198.166 70.4311 198.013 70.2911C197.859 70.1578 197.569 70.0745 197.143 70.0411C196.823 70.0211 196.539 69.9911 196.293 69.9511C196.059 70.0778 195.899 70.2145 195.813 70.3611C195.726 70.5078 195.683 70.6511 195.683 70.7911ZM202.713 70.2811C202.226 70.2811 201.793 70.1745 201.413 69.9611C201.039 69.7411 200.746 69.4378 200.533 69.0511C200.319 68.6645 200.213 68.2145 200.213 67.7011C200.213 67.1811 200.316 66.7245 200.523 66.3311C200.736 65.9378 201.029 65.6311 201.403 65.4111C201.783 65.1911 202.223 65.0811 202.723 65.0811C203.209 65.0811 203.633 65.1911 203.993 65.4111C204.353 65.6245 204.633 65.9111 204.833 66.2711C205.033 66.6311 205.133 67.0278 205.133 67.4611C205.133 67.5278 205.129 67.6011 205.123 67.6811C205.123 67.7545 205.119 67.8378 205.113 67.9311H201.253C201.286 68.4111 201.443 68.7778 201.723 69.0311C202.009 69.2778 202.339 69.4011 202.713 69.4011C203.013 69.4011 203.263 69.3345 203.463 69.2011C203.669 69.0611 203.823 68.8745 203.923 68.6411H204.983C204.849 69.1078 204.583 69.4978 204.183 69.8111C203.789 70.1245 203.299 70.2811 202.713 70.2811ZM202.713 65.9511C202.359 65.9511 202.046 66.0578 201.773 66.2711C201.499 66.4778 201.333 66.7911 201.273 67.2111H204.073C204.053 66.8245 203.916 66.5178 203.663 66.2911C203.409 66.0645 203.093 65.9511 202.713 65.9511ZM206.233 70.1611V65.2011H207.173L207.253 66.0711C207.406 65.7645 207.629 65.5245 207.923 65.3511C208.223 65.1711 208.566 65.0811 208.953 65.0811C209.553 65.0811 210.023 65.2678 210.363 65.6411C210.709 66.0145 210.883 66.5711 210.883 67.3111V70.1611H209.833V67.4211C209.833 66.4611 209.439 65.9811 208.653 65.9811C208.259 65.9811 207.933 66.1211 207.673 66.4011C207.419 66.6811 207.293 67.0811 207.293 67.6011V70.1611H206.233ZM214.481 70.2811C213.994 70.2811 213.558 70.1711 213.171 69.9511C212.791 69.7311 212.491 69.4278 212.271 69.0411C212.058 68.6478 211.951 68.1945 211.951 67.6811C211.951 67.1678 212.058 66.7178 212.271 66.3311C212.491 65.9378 212.791 65.6311 213.171 65.4111C213.558 65.1911 213.994 65.0811 214.481 65.0811C215.094 65.0811 215.608 65.2411 216.021 65.5611C216.441 65.8811 216.711 66.3145 216.831 66.8611H215.721C215.654 66.5878 215.508 66.3745 215.281 66.2211C215.054 66.0678 214.788 65.9911 214.481 65.9911C214.221 65.9911 213.981 66.0578 213.761 66.1911C213.541 66.3178 213.364 66.5078 213.231 66.7611C213.098 67.0078 213.031 67.3145 213.031 67.6811C213.031 68.0478 213.098 68.3578 213.231 68.6111C213.364 68.8578 213.541 69.0478 213.761 69.1811C213.981 69.3145 214.221 69.3811 214.481 69.3811C214.788 69.3811 215.054 69.3045 215.281 69.1511C215.508 68.9978 215.654 68.7811 215.721 68.5011H216.831C216.718 69.0345 216.451 69.4645 216.031 69.7911C215.611 70.1178 215.094 70.2811 214.481 70.2811ZM218.561 72.3611L219.751 69.7511H219.461L217.501 65.2011H218.651L220.171 68.8711L221.761 65.2011H222.881L219.681 72.3611H218.561Z" fill="#FF0000"/>
<path d="M253.271 70.1611L255.851 63.1611H257.011L259.571 70.1611H258.451L257.851 68.4511H254.991L254.391 70.1611H253.271ZM255.291 67.6111H257.551L256.421 64.4211L255.291 67.6111ZM262.603 70.2811C262.116 70.2811 261.68 70.1711 261.293 69.9511C260.913 69.7311 260.613 69.4278 260.393 69.0411C260.18 68.6478 260.073 68.1945 260.073 67.6811C260.073 67.1678 260.18 66.7178 260.393 66.3311C260.613 65.9378 260.913 65.6311 261.293 65.4111C261.68 65.1911 262.116 65.0811 262.603 65.0811C263.216 65.0811 263.73 65.2411 264.143 65.5611C264.563 65.8811 264.833 66.3145 264.953 66.8611H263.843C263.776 66.5878 263.63 66.3745 263.403 66.2211C263.176 66.0678 262.91 65.9911 262.603 65.9911C262.343 65.9911 262.103 66.0578 261.883 66.1911C261.663 66.3178 261.486 66.5078 261.353 66.7611C261.22 67.0078 261.153 67.3145 261.153 67.6811C261.153 68.0478 261.22 68.3578 261.353 68.6111C261.486 68.8578 261.663 69.0478 261.883 69.1811C262.103 69.3145 262.343 69.3811 262.603 69.3811C262.91 69.3811 263.176 69.3045 263.403 69.1511C263.63 68.9978 263.776 68.7811 263.843 68.5011H264.953C264.84 69.0345 264.573 69.4645 264.153 69.7911C263.733 70.1178 263.216 70.2811 262.603 70.2811ZM268.453 70.2811C267.966 70.2811 267.529 70.1711 267.143 69.9511C266.763 69.7311 266.463 69.4278 266.243 69.0411C266.029 68.6478 265.923 68.1945 265.923 67.6811C265.923 67.1678 266.029 66.7178 266.243 66.3311C266.463 65.9378 266.763 65.6311 267.143 65.4111C267.529 65.1911 267.966 65.0811 268.453 65.0811C269.066 65.0811 269.579 65.2411 269.993 65.5611C270.413 65.8811 270.683 66.3145 270.803 66.8611H269.693C269.626 66.5878 269.479 66.3745 269.253 66.2211C269.026 66.0678 268.759 65.9911 268.453 65.9911C268.193 65.9911 267.953 66.0578 267.733 66.1911C267.513 66.3178 267.336 66.5078 267.203 66.7611C267.069 67.0078 267.003 67.3145 267.003 67.6811C267.003 68.0478 267.069 68.3578 267.203 68.6111C267.336 68.8578 267.513 69.0478 267.733 69.1811C267.953 69.3145 268.193 69.3811 268.453 69.3811C268.759 69.3811 269.026 69.3045 269.253 69.1511C269.479 68.9978 269.626 68.7811 269.693 68.5011H270.803C270.689 69.0345 270.423 69.4645 270.003 69.7911C269.583 70.1178 269.066 70.2811 268.453 70.2811ZM272.552 64.2611C272.352 64.2611 272.186 64.2011 272.052 64.0811C271.926 63.9545 271.862 63.7978 271.862 63.6111C271.862 63.4245 271.926 63.2711 272.052 63.1511C272.186 63.0245 272.352 62.9611 272.552 62.9611C272.752 62.9611 272.916 63.0245 273.042 63.1511C273.176 63.2711 273.242 63.4245 273.242 63.6111C273.242 63.7978 273.176 63.9545 273.042 64.0811C272.916 64.2011 272.752 64.2611 272.552 64.2611ZM272.022 70.1611V65.2011H273.082V70.1611H272.022ZM276.742 70.2811C276.262 70.2811 275.838 70.1678 275.472 69.9411C275.105 69.7145 274.818 69.4045 274.612 69.0111C274.405 68.6178 274.302 68.1711 274.302 67.6711C274.302 67.1711 274.405 66.7278 274.612 66.3411C274.818 65.9478 275.105 65.6411 275.472 65.4211C275.845 65.1945 276.272 65.0811 276.752 65.0811C277.145 65.0811 277.488 65.1578 277.782 65.3111C278.082 65.4645 278.315 65.6811 278.482 65.9611V62.9611H279.542V70.1611H278.592L278.482 69.3911C278.322 69.6245 278.102 69.8311 277.822 70.0111C277.542 70.1911 277.182 70.2811 276.742 70.2811ZM276.932 69.3611C277.385 69.3611 277.755 69.2045 278.042 68.8911C278.335 68.5778 278.482 68.1745 278.482 67.6811C278.482 67.1811 278.335 66.7778 278.042 66.4711C277.755 66.1578 277.385 66.0011 276.932 66.0011C276.478 66.0011 276.105 66.1578 275.812 66.4711C275.518 66.7778 275.372 67.1811 275.372 67.6811C275.372 68.0078 275.438 68.2978 275.572 68.5511C275.705 68.8045 275.888 69.0045 276.122 69.1511C276.362 69.2911 276.632 69.3611 276.932 69.3611ZM283.198 70.2811C282.711 70.2811 282.278 70.1745 281.898 69.9611C281.525 69.7411 281.231 69.4378 281.018 69.0511C280.805 68.6645 280.698 68.2145 280.698 67.7011C280.698 67.1811 280.801 66.7245 281.008 66.3311C281.221 65.9378 281.515 65.6311 281.888 65.4111C282.268 65.1911 282.708 65.0811 283.208 65.0811C283.695 65.0811 284.118 65.1911 284.478 65.4111C284.838 65.6245 285.118 65.9111 285.318 66.2711C285.518 66.6311 285.618 67.0278 285.618 67.4611C285.618 67.5278 285.615 67.6011 285.608 67.6811C285.608 67.7545 285.605 67.8378 285.598 67.9311H281.738C281.771 68.4111 281.928 68.7778 282.208 69.0311C282.495 69.2778 282.825 69.4011 283.198 69.4011C283.498 69.4011 283.748 69.3345 283.948 69.2011C284.155 69.0611 284.308 68.8745 284.408 68.6411H285.468C285.335 69.1078 285.068 69.4978 284.668 69.8111C284.275 70.1245 283.785 70.2811 283.198 70.2811ZM283.198 65.9511C282.845 65.9511 282.531 66.0578 282.258 66.2711C281.985 66.4778 281.818 66.7911 281.758 67.2111H284.558C284.538 66.8245 284.401 66.5178 284.148 66.2911C283.895 66.0645 283.578 65.9511 283.198 65.9511ZM286.718 70.1611V65.2011H287.658L287.738 66.0711C287.891 65.7645 288.115 65.5245 288.408 65.3511C288.708 65.1711 289.051 65.0811 289.438 65.0811C290.038 65.0811 290.508 65.2678 290.848 65.6411C291.195 66.0145 291.368 66.5711 291.368 67.3111V70.1611H290.318V67.4211C290.318 66.4611 289.925 65.9811 289.138 65.9811C288.745 65.9811 288.418 66.1211 288.158 66.4011C287.905 66.6811 287.778 67.0811 287.778 67.6011V70.1611H286.718ZM294.696 70.1611C294.21 70.1611 293.823 70.0445 293.536 69.8111C293.25 69.5711 293.106 69.1478 293.106 68.5411V66.0911H292.256V65.2011H293.106L293.236 63.9411H294.166V65.2011H295.566V66.0911H294.166V68.5411C294.166 68.8145 294.223 69.0045 294.336 69.1111C294.456 69.2111 294.66 69.2611 294.946 69.2611H295.516V70.1611H294.696Z" fill="#D5D6D7"/>
<path fill-rule="evenodd" clip-rule="evenodd" d="M284.625 26.4111C285.794 26.4111 286.75 27.3674 286.75 28.5361V37.0361H284.625V28.5361H280.375V30.6611H278.25V28.5361H269.75V30.6611H267.625V28.5361H263.375V49.7861H271.875V51.9111H263.375C262.206 51.9111 261.25 50.9549 261.25 49.7861V28.5361C261.25 27.3674 262.206 26.4111 263.375 26.4111H267.625V24.2861H269.75V26.4111H278.25V24.2861H280.375V26.4111H284.625ZM282.5 45.5361H288.875V47.6611H282.5V54.0361H280.375V47.6611H274V45.5361H280.375V39.1611H282.5V45.5361Z" fill="#D5D6D7"/>
<path fill-rule="evenodd" clip-rule="evenodd" d="M364.187 39.161V39.9685L366.195 41.8066C366.566 42.1316 366.812 42.5754 366.892 43.0619C366.971 43.5484 366.879 44.0475 366.631 44.4735L364.209 48.7235C364.022 49.0462 363.754 49.3143 363.432 49.5008C363.109 49.6873 362.743 49.7856 362.37 49.786C362.14 49.7878 361.91 49.7519 361.69 49.6798L359.119 48.8085C358.67 49.1048 358.201 49.371 357.717 49.6054L357.175 52.2829C357.078 52.7721 356.812 53.2115 356.423 53.5242C356.035 53.8369 355.548 54.0031 355.05 53.9935H350.035C349.536 54.0031 349.05 53.8369 348.662 53.5242C348.273 53.2115 348.007 52.7721 347.91 52.2829L347.368 49.6054C346.887 49.3709 346.422 49.1047 345.976 48.8085L343.394 49.6798C343.175 49.7519 342.945 49.7878 342.714 49.786C342.342 49.7856 341.976 49.6873 341.653 49.5008C341.33 49.3143 341.062 49.0462 340.876 48.7235L338.369 44.4735C338.109 44.0433 338.011 43.5351 338.09 43.0391C338.17 42.5431 338.423 42.0914 338.804 41.7641L340.812 39.9791V39.161V38.3535L338.804 36.5154C338.434 36.1904 338.187 35.7466 338.108 35.2601C338.028 34.7736 338.121 34.2746 338.369 33.8485L340.876 29.5985C341.062 29.2758 341.33 29.0077 341.653 28.8213C341.976 28.6348 342.342 28.5364 342.714 28.536C342.943 28.5205 343.172 28.542 343.394 28.5998L345.923 29.5135C346.372 29.2172 346.841 28.951 347.325 28.7166L347.867 26.0391C347.965 25.55 348.231 25.1106 348.619 24.7978C349.008 24.4851 349.494 24.319 349.992 24.3285H354.965C355.463 24.319 355.95 24.4851 356.338 24.7978C356.727 25.1106 356.993 25.55 357.09 26.0391L357.632 28.7166C358.113 28.9511 358.578 29.2173 359.024 29.5135L361.605 28.6423C361.825 28.5701 362.055 28.5342 362.285 28.536C362.658 28.5364 363.024 28.6348 363.347 28.8213C363.669 29.0077 363.937 29.2758 364.124 29.5985L366.631 33.8485C366.894 34.2752 366.998 34.7811 366.924 35.2769C366.85 35.7727 366.603 36.2264 366.227 36.5579L364.187 38.3429V39.161ZM358.641 46.4285L362.285 47.661L364.793 43.411L361.903 40.7866C362.099 39.6868 362.099 38.5609 361.903 37.461L364.793 34.911L362.285 30.661L358.63 31.851C357.774 31.1382 356.805 30.5743 355.762 30.1829L355.007 26.411H349.992L349.238 30.2254C348.187 30.606 347.212 31.1709 346.359 31.8935L342.714 30.661L340.207 34.911L343.097 37.5354C342.9 38.6352 342.9 39.7612 343.097 40.861L340.207 43.411L342.714 47.661L346.369 46.471C347.225 47.1838 348.195 47.7477 349.238 48.1391L349.992 51.911H355.007L355.762 48.0966C356.813 47.716 357.788 47.1511 358.641 46.4285ZM348.958 44.4617C350.006 45.1622 351.239 45.5361 352.5 45.5361C353.339 45.5446 354.172 45.3856 354.949 45.0682C355.727 44.7508 356.433 44.2816 357.027 43.6879C357.62 43.0942 358.09 42.3881 358.407 41.6108C358.724 40.8335 358.883 40.0007 358.875 39.1611C358.875 37.9002 358.501 36.6677 357.8 35.6193C357.1 34.571 356.104 33.7539 354.939 33.2714C353.775 32.7889 352.493 32.6626 351.256 32.9086C350.02 33.1546 348.884 33.7617 347.992 34.6533C347.1 35.5449 346.493 36.6808 346.247 37.9174C346.001 39.154 346.128 40.4358 346.61 41.6007C347.093 42.7656 347.91 43.7612 348.958 44.4617ZM350.858 35.208C351.38 34.999 351.938 34.898 352.5 34.9111C353.062 34.898 353.62 34.999 354.142 35.208C354.663 35.4169 355.137 35.7295 355.534 36.1268C355.931 36.5241 356.244 36.9978 356.453 37.5193C356.662 38.0409 356.763 38.5994 356.75 39.1611C356.763 39.7228 356.662 40.2813 356.453 40.8029C356.244 41.3244 355.931 41.7982 355.534 42.1954C355.137 42.5927 354.663 42.9053 354.142 43.1143C353.62 43.3232 353.062 43.4242 352.5 43.4111C351.938 43.4242 351.38 43.3232 350.858 43.1143C350.337 42.9053 349.863 42.5927 349.465 42.1954C349.068 41.7982 348.756 41.3244 348.547 40.8029C348.338 40.2813 348.237 39.7228 348.25 39.1611C348.237 38.5994 348.338 38.0409 348.547 37.5193C348.756 36.9978 349.068 36.5241 349.465 36.1268C349.863 35.7295 350.337 35.4169 350.858 35.208Z" fill="#D5D6D7"/>
<path d="M336.106 70.2811C335.593 70.2811 335.143 70.1911 334.756 70.0111C334.369 69.8311 334.066 69.5745 333.846 69.2411C333.633 68.9078 333.523 68.5111 333.516 68.0511H334.636C334.643 68.4245 334.773 68.7411 335.026 69.0011C335.279 69.2611 335.636 69.3911 336.096 69.3911C336.503 69.3911 336.819 69.2945 337.046 69.1011C337.279 68.9011 337.396 68.6478 337.396 68.3411C337.396 68.0945 337.339 67.8945 337.226 67.7411C337.119 67.5878 336.969 67.4611 336.776 67.3611C336.589 67.2611 336.373 67.1711 336.126 67.0911C335.879 67.0111 335.619 66.9245 335.346 66.8311C334.806 66.6511 334.399 66.4178 334.126 66.1311C333.859 65.8445 333.726 65.4678 333.726 65.0011C333.719 64.6078 333.809 64.2645 333.996 63.9711C334.189 63.6778 334.456 63.4511 334.796 63.2911C335.143 63.1245 335.546 63.0411 336.006 63.0411C336.459 63.0411 336.856 63.1245 337.196 63.2911C337.543 63.4578 337.813 63.6911 338.006 63.9911C338.199 64.2845 338.299 64.6278 338.306 65.0211H337.186C337.186 64.8411 337.139 64.6711 337.046 64.5111C336.953 64.3445 336.816 64.2078 336.636 64.1011C336.456 63.9945 336.236 63.9411 335.976 63.9411C335.643 63.9345 335.366 64.0178 335.146 64.1911C334.933 64.3645 334.826 64.6045 334.826 64.9111C334.826 65.1845 334.906 65.3945 335.066 65.5411C335.226 65.6878 335.446 65.8111 335.726 65.9111C336.006 66.0045 336.326 66.1145 336.686 66.2411C337.033 66.3545 337.343 66.4911 337.616 66.6511C337.889 66.8111 338.106 67.0211 338.266 67.2811C338.433 67.5411 338.516 67.8711 338.516 68.2711C338.516 68.6245 338.426 68.9545 338.246 69.2611C338.066 69.5611 337.796 69.8078 337.436 70.0011C337.076 70.1878 336.633 70.2811 336.106 70.2811ZM341.955 70.2811C341.468 70.2811 341.035 70.1745 340.655 69.9611C340.282 69.7411 339.988 69.4378 339.775 69.0511C339.562 68.6645 339.455 68.2145 339.455 67.7011C339.455 67.1811 339.558 66.7245 339.765 66.3311C339.978 65.9378 340.272 65.6311 340.645 65.4111C341.025 65.1911 341.465 65.0811 341.965 65.0811C342.452 65.0811 342.875 65.1911 343.235 65.4111C343.595 65.6245 343.875 65.9111 344.075 66.2711C344.275 66.6311 344.375 67.0278 344.375 67.4611C344.375 67.5278 344.372 67.6011 344.365 67.6811C344.365 67.7545 344.362 67.8378 344.355 67.9311H340.495C340.528 68.4111 340.685 68.7778 340.965 69.0311C341.252 69.2778 341.582 69.4011 341.955 69.4011C342.255 69.4011 342.505 69.3345 342.705 69.2011C342.912 69.0611 343.065 68.8745 343.165 68.6411H344.225C344.092 69.1078 343.825 69.4978 343.425 69.8111C343.032 70.1245 342.542 70.2811 341.955 70.2811ZM341.955 65.9511C341.602 65.9511 341.288 66.0578 341.015 66.2711C340.742 66.4778 340.575 66.7911 340.515 67.2111H343.315C343.295 66.8245 343.158 66.5178 342.905 66.2911C342.652 66.0645 342.335 65.9511 341.955 65.9511ZM347.428 70.1611C346.941 70.1611 346.554 70.0445 346.268 69.8111C345.981 69.5711 345.838 69.1478 345.838 68.5411V66.0911H344.988V65.2011H345.838L345.968 63.9411H346.898V65.2011H348.298V66.0911H346.898V68.5411C346.898 68.8145 346.954 69.0045 347.068 69.1111C347.188 69.2111 347.391 69.2611 347.678 69.2611H348.248V70.1611H347.428ZM351.471 70.1611C350.984 70.1611 350.597 70.0445 350.311 69.8111C350.024 69.5711 349.881 69.1478 349.881 68.5411V66.0911H349.031V65.2011H349.881L350.011 63.9411H350.941V65.2011H352.341V66.0911H350.941V68.5411C350.941 68.8145 350.997 69.0045 351.111 69.1111C351.231 69.2111 351.434 69.2611 351.721 69.2611H352.291V70.1611H351.471ZM354.034 64.2611C353.834 64.2611 353.667 64.2011 353.534 64.0811C353.407 63.9545 353.344 63.7978 353.344 63.6111C353.344 63.4245 353.407 63.2711 353.534 63.1511C353.667 63.0245 353.834 62.9611 354.034 62.9611C354.234 62.9611 354.397 63.0245 354.524 63.1511C354.657 63.2711 354.724 63.4245 354.724 63.6111C354.724 63.7978 354.657 63.9545 354.524 64.0811C354.397 64.2011 354.234 64.2611 354.034 64.2611ZM353.504 70.1611V65.2011H354.564V70.1611H353.504ZM355.963 70.1611V65.2011H356.903L356.983 66.0711C357.136 65.7645 357.36 65.5245 357.653 65.3511C357.953 65.1711 358.296 65.0811 358.683 65.0811C359.283 65.0811 359.753 65.2678 360.093 65.6411C360.44 66.0145 360.613 66.5711 360.613 67.3111V70.1611H359.563V67.4211C359.563 66.4611 359.17 65.9811 358.383 65.9811C357.99 65.9811 357.663 66.1211 357.403 66.4011C357.15 66.6811 357.023 67.0811 357.023 67.6011V70.1611H355.963ZM363.891 68.6411C363.631 68.6411 363.391 68.6111 363.171 68.5511L362.741 68.9711C362.815 69.0178 362.905 69.0578 363.011 69.0911C363.118 69.1245 363.268 69.1545 363.461 69.1811C363.655 69.2078 363.918 69.2345 364.251 69.2611C364.911 69.3211 365.388 69.4811 365.681 69.7411C365.975 69.9945 366.121 70.3345 366.121 70.7611C366.121 71.0545 366.041 71.3311 365.881 71.5911C365.728 71.8578 365.485 72.0711 365.151 72.2311C364.825 72.3978 364.405 72.4811 363.891 72.4811C363.198 72.4811 362.635 72.3478 362.201 72.0811C361.775 71.8211 361.561 71.4245 361.561 70.8911C361.561 70.6845 361.615 70.4778 361.721 70.2711C361.835 70.0711 362.011 69.8811 362.251 69.7011C362.111 69.6411 361.988 69.5778 361.881 69.5111C361.781 69.4378 361.691 69.3645 361.611 69.2911V69.0511L362.471 68.1711C362.085 67.8378 361.891 67.4011 361.891 66.8611C361.891 66.5345 361.968 66.2378 362.121 65.9711C362.281 65.6978 362.511 65.4811 362.811 65.3211C363.111 65.1611 363.471 65.0811 363.891 65.0811C364.171 65.0811 364.431 65.1211 364.671 65.2011H366.521V65.9011L365.641 65.9511C365.801 66.2245 365.881 66.5278 365.881 66.8611C365.881 67.1945 365.801 67.4945 365.641 67.7611C365.488 68.0278 365.261 68.2411 364.961 68.4011C364.668 68.5611 364.311 68.6411 363.891 68.6411ZM363.891 67.8111C364.198 67.8111 364.445 67.7311 364.631 67.5711C364.825 67.4045 364.921 67.1711 364.921 66.8711C364.921 66.5645 364.825 66.3311 364.631 66.1711C364.445 66.0111 364.198 65.9311 363.891 65.9311C363.578 65.9311 363.325 66.0111 363.131 66.1711C362.945 66.3311 362.851 66.5645 362.851 66.8711C362.851 67.1711 362.945 67.4045 363.131 67.5711C363.325 67.7311 363.578 67.8111 363.891 67.8111ZM362.561 70.7911C362.561 71.0778 362.688 71.2911 362.941 71.4311C363.195 71.5778 363.511 71.6511 363.891 71.6511C364.258 71.6511 364.555 71.5711 364.781 71.4111C365.008 71.2578 365.121 71.0511 365.121 70.7911C365.121 70.5978 365.045 70.4311 364.891 70.2911C364.738 70.1578 364.448 70.0745 364.021 70.0411C363.701 70.0211 363.418 69.9911 363.171 69.9511C362.938 70.0778 362.778 70.2145 362.691 70.3611C362.605 70.5078 362.561 70.6511 362.561 70.7911ZM369.447 70.2811C368.82 70.2811 368.304 70.1278 367.897 69.8211C367.49 69.5145 367.257 69.1078 367.197 68.6011H368.267C368.32 68.8278 368.447 69.0245 368.647 69.1911C368.847 69.3511 369.11 69.4311 369.437 69.4311C369.757 69.4311 369.99 69.3645 370.137 69.2311C370.284 69.0978 370.357 68.9445 370.357 68.7711C370.357 68.5178 370.254 68.3478 370.047 68.2611C369.847 68.1678 369.567 68.0845 369.207 68.0111C368.927 67.9511 368.647 67.8711 368.367 67.7711C368.094 67.6711 367.864 67.5311 367.677 67.3511C367.497 67.1645 367.407 66.9145 367.407 66.6011C367.407 66.1678 367.574 65.8078 367.907 65.5211C368.24 65.2278 368.707 65.0811 369.307 65.0811C369.86 65.0811 370.307 65.2145 370.647 65.4811C370.994 65.7478 371.197 66.1245 371.257 66.6111H370.237C370.204 66.3978 370.104 66.2311 369.937 66.1111C369.777 65.9911 369.56 65.9311 369.287 65.9311C369.02 65.9311 368.814 65.9878 368.667 66.1011C368.52 66.2078 368.447 66.3478 368.447 66.5211C368.447 66.6945 368.547 66.8311 368.747 66.9311C368.954 67.0311 369.224 67.1211 369.557 67.2011C369.89 67.2745 370.197 67.3611 370.477 67.4611C370.764 67.5545 370.994 67.6945 371.167 67.8811C371.34 68.0678 371.427 68.3411 371.427 68.7011C371.434 69.1545 371.257 69.5311 370.897 69.8311C370.544 70.1311 370.06 70.2811 369.447 70.2811Z" fill="#D5D6D7"/>
</g>
<defs>
<filter id="filter0_bd_590_19587" x="-50" y="-37" width="493" height="183" filterUnits="userSpaceOnUse" color-interpolation-filters="sRGB">
<feFlood flood-opacity="0" result="BackgroundImageFix"/>
<feGaussianBlur in="BackgroundImageFix" stdDeviation="25"/>
<feComposite in2="SourceAlpha" operator="in" result="effect1_backgroundBlur_590_19587"/>
<feColorMatrix in="SourceAlpha" type="matrix" values="0 0 0 0 0 0 0 0 0 0 0 0 0 0 0 0 0 0 127 0" result="hardAlpha"/>
<feOffset dy="-0.33"/>
<feGaussianBlur stdDeviation="6"/>
<feComposite in2="hardAlpha" operator="out"/>
<feColorMatrix type="matrix" values="0 0 0 0 0 0 0 0 0 0 0 0 0 0 0 0 0 0 0.2 0"/>
<feBlend mode="normal" in2="effect1_backgroundBlur_590_19587" result="effect2_dropShadow_590_19587"/>
<feBlend mode="normal" in="SourceGraphic" in2="effect2_dropShadow_590_19587" result="shape"/>
</filter>
<clipPath id="clip0_590_19587">
<rect width="22.6868" height="10.2091" fill="white" transform="translate(185.157 34.0566)"/>
</clipPath>
</defs>
</svg>
