<svg width="61" height="52" viewBox="0 0 61 52" fill="none" xmlns="http://www.w3.org/2000/svg">
<path fill-rule="evenodd" clip-rule="evenodd" d="M19.875 4.53613H26.25C26.8136 4.53613 27.3541 4.76002 27.7526 5.15853C28.1511 5.55705 28.375 6.09755 28.375 6.66113V13.0361C28.375 13.5997 28.1511 14.1402 27.7526 14.5387C27.3541 14.9372 26.8136 15.1611 26.25 15.1611H19.875C19.3114 15.1611 18.7709 14.9372 18.3724 14.5387C17.9739 14.1402 17.75 13.5997 17.75 13.0361V6.66113C17.75 6.09755 17.9739 5.55705 18.3724 5.15853C18.7709 4.76002 19.3114 4.53613 19.875 4.53613ZM19.875 13.0361H26.25V6.66113H19.875V13.0361ZM34.75 4.53613H41.125C41.6886 4.53613 42.2291 4.76002 42.6276 5.15853C43.0261 5.55705 43.25 6.09755 43.25 6.66113V13.0361C43.25 13.5997 43.0261 14.1402 42.6276 14.5387C42.2291 14.9372 41.6886 15.1611 41.125 15.1611H34.75C34.1864 15.1611 33.6459 14.9372 33.2474 14.5387C32.8489 14.1402 32.625 13.5997 32.625 13.0361V6.66113C32.625 6.09755 32.8489 5.55705 33.2474 5.15853C33.6459 4.76002 34.1864 4.53613 34.75 4.53613ZM34.75 13.0361H41.125V6.66113H34.75V13.0361ZM26.25 19.4111H19.875C19.3114 19.4111 18.7709 19.635 18.3724 20.0335C17.9739 20.432 17.75 20.9725 17.75 21.5361V27.9111C17.75 28.4747 17.9739 29.0152 18.3724 29.4137C18.7709 29.8122 19.3114 30.0361 19.875 30.0361H26.25C26.8136 30.0361 27.3541 29.8122 27.7526 29.4137C28.1511 29.0152 28.375 28.4747 28.375 27.9111V21.5361C28.375 20.9725 28.1511 20.432 27.7526 20.0335C27.3541 19.635 26.8136 19.4111 26.25 19.4111ZM26.25 27.9111H19.875V21.5361H26.25V27.9111ZM34.75 19.4111H41.125C41.6886 19.4111 42.2291 19.635 42.6276 20.0335C43.0261 20.432 43.25 20.9725 43.25 21.5361V27.9111C43.25 28.4747 43.0261 29.0152 42.6276 29.4137C42.2291 29.8122 41.6886 30.0361 41.125 30.0361H34.75C34.1864 30.0361 33.6459 29.8122 33.2474 29.4137C32.8489 29.0152 32.625 28.4747 32.625 27.9111V21.5361C32.625 20.9725 32.8489 20.432 33.2474 20.0335C33.6459 19.635 34.1864 19.4111 34.75 19.4111ZM34.75 27.9111H41.125V21.5361H34.75V27.9111Z" fill="#367CFF"/>
<path d="M4.69074 48.0361V41.0361H7.08074C7.90074 41.0361 8.57408 41.1828 9.10074 41.4761C9.63408 41.7628 10.0274 42.1695 10.2807 42.6961C10.5407 43.2161 10.6707 43.8295 10.6707 44.5361C10.6707 45.2428 10.5407 45.8595 10.2807 46.3861C10.0274 46.9061 9.63408 47.3128 9.10074 47.6061C8.57408 47.8928 7.90074 48.0361 7.08074 48.0361H4.69074ZM5.97074 46.9361H7.02074C7.60741 46.9361 8.07074 46.8428 8.41074 46.6561C8.75074 46.4628 8.99408 46.1895 9.14074 45.8361C9.28741 45.4761 9.36074 45.0428 9.36074 44.5361C9.36074 44.0361 9.28741 43.6061 9.14074 43.2461C8.99408 42.8861 8.75074 42.6095 8.41074 42.4161C8.07074 42.2228 7.60741 42.1261 7.02074 42.1261H5.97074V46.9361ZM13.4801 48.1561C13.0535 48.1561 12.7035 48.0895 12.4301 47.9561C12.1568 47.8161 11.9535 47.6328 11.8201 47.4061C11.6868 47.1795 11.6201 46.9295 11.6201 46.6561C11.6201 46.1961 11.8001 45.8228 12.1601 45.5361C12.5201 45.2495 13.0601 45.1061 13.7801 45.1061H15.0401V44.9861C15.0401 44.6461 14.9435 44.3961 14.7501 44.2361C14.5568 44.0761 14.3168 43.9961 14.0301 43.9961C13.7701 43.9961 13.5435 44.0595 13.3501 44.1861C13.1568 44.3061 13.0368 44.4861 12.9901 44.7261H11.7401C11.7735 44.3661 11.8935 44.0528 12.1001 43.7861C12.3135 43.5195 12.5868 43.3161 12.9201 43.1761C13.2535 43.0295 13.6268 42.9561 14.0401 42.9561C14.7468 42.9561 15.3035 43.1328 15.7101 43.4861C16.1168 43.8395 16.3201 44.3395 16.3201 44.9861V48.0361H15.2301L15.1101 47.2361C14.9635 47.5028 14.7568 47.7228 14.4901 47.8961C14.2301 48.0695 13.8935 48.1561 13.4801 48.1561ZM13.7701 47.1561C14.1368 47.1561 14.4201 47.0361 14.6201 46.7961C14.8268 46.5561 14.9568 46.2595 15.0101 45.9061H13.9201C13.5801 45.9061 13.3368 45.9695 13.1901 46.0961C13.0435 46.2161 12.9701 46.3661 12.9701 46.5461C12.9701 46.7395 13.0435 46.8895 13.1901 46.9961C13.3368 47.1028 13.5301 47.1561 13.7701 47.1561ZM19.5916 48.1561C19.1516 48.1561 18.7649 48.0861 18.4316 47.9461C18.0983 47.7995 17.8316 47.5995 17.6316 47.3461C17.4316 47.0928 17.3116 46.7995 17.2716 46.4661H18.5616C18.6016 46.6595 18.7083 46.8261 18.8816 46.9661C19.0616 47.0995 19.2916 47.1661 19.5716 47.1661C19.8516 47.1661 20.0549 47.1095 20.1816 46.9961C20.3149 46.8828 20.3816 46.7528 20.3816 46.6061C20.3816 46.3928 20.2883 46.2495 20.1016 46.1761C19.9149 46.0961 19.6549 46.0195 19.3216 45.9461C19.1083 45.8995 18.8916 45.8428 18.6716 45.7761C18.4516 45.7095 18.2483 45.6261 18.0616 45.5261C17.8816 45.4195 17.7349 45.2861 17.6216 45.1261C17.5083 44.9595 17.4516 44.7561 17.4516 44.5161C17.4516 44.0761 17.6249 43.7061 17.9716 43.4061C18.3249 43.1061 18.8183 42.9561 19.4516 42.9561C20.0383 42.9561 20.5049 43.0928 20.8516 43.3661C21.2049 43.6395 21.4149 44.0161 21.4816 44.4961H20.2716C20.1983 44.1295 19.9216 43.9461 19.4416 43.9461C19.2016 43.9461 19.0149 43.9928 18.8816 44.0861C18.7549 44.1795 18.6916 44.2961 18.6916 44.4361C18.6916 44.5828 18.7883 44.6995 18.9816 44.7861C19.1749 44.8728 19.4316 44.9528 19.7516 45.0261C20.0983 45.1061 20.4149 45.1961 20.7016 45.2961C20.9949 45.3895 21.2283 45.5328 21.4016 45.7261C21.5749 45.9128 21.6616 46.1828 21.6616 46.5361C21.6683 46.8428 21.5883 47.1195 21.4216 47.3661C21.2549 47.6128 21.0149 47.8061 20.7016 47.9461C20.3883 48.0861 20.0183 48.1561 19.5916 48.1561ZM22.7955 48.0361V40.8361H24.0755V43.8361C24.2422 43.5628 24.4655 43.3495 24.7455 43.1961C25.0322 43.0361 25.3588 42.9561 25.7255 42.9561C26.3388 42.9561 26.8122 43.1495 27.1455 43.5361C27.4855 43.9228 27.6555 44.4895 27.6555 45.2361V48.0361H26.3855V45.3561C26.3855 44.9295 26.2988 44.6028 26.1255 44.3761C25.9588 44.1495 25.6922 44.0361 25.3255 44.0361C24.9655 44.0361 24.6655 44.1628 24.4255 44.4161C24.1922 44.6695 24.0755 45.0228 24.0755 45.4761V48.0361H22.7955ZM31.8195 48.1561C31.4462 48.1561 31.1195 48.0861 30.8395 47.9461C30.5595 47.8061 30.3328 47.6095 30.1595 47.3561L30.0195 48.0361H28.8795V40.8361H30.1595V43.7861C30.3195 43.5661 30.5295 43.3728 30.7895 43.2061C31.0562 43.0395 31.3995 42.9561 31.8195 42.9561C32.2862 42.9561 32.7028 43.0695 33.0695 43.2961C33.4362 43.5228 33.7262 43.8328 33.9395 44.2261C34.1528 44.6195 34.2595 45.0661 34.2595 45.5661C34.2595 46.0661 34.1528 46.5128 33.9395 46.9061C33.7262 47.2928 33.4362 47.5995 33.0695 47.8261C32.7028 48.0461 32.2862 48.1561 31.8195 48.1561ZM31.5495 47.0361C31.9562 47.0361 32.2928 46.8995 32.5595 46.6261C32.8262 46.3528 32.9595 45.9995 32.9595 45.5661C32.9595 45.1328 32.8262 44.7761 32.5595 44.4961C32.2928 44.2161 31.9562 44.0761 31.5495 44.0761C31.1362 44.0761 30.7962 44.2161 30.5295 44.4961C30.2695 44.7695 30.1395 45.1228 30.1395 45.5561C30.1395 45.9895 30.2695 46.3461 30.5295 46.6261C30.7962 46.8995 31.1362 47.0361 31.5495 47.0361ZM37.7829 48.1561C37.3029 48.1561 36.8696 48.0461 36.4829 47.8261C36.1029 47.6061 35.7996 47.3028 35.5729 46.9161C35.3529 46.5228 35.2429 46.0695 35.2429 45.5561C35.2429 45.0428 35.3563 44.5928 35.5829 44.2061C35.8096 43.8128 36.1129 43.5061 36.4929 43.2861C36.8796 43.0661 37.3129 42.9561 37.7929 42.9561C38.2663 42.9561 38.6929 43.0661 39.0729 43.2861C39.4596 43.5061 39.7629 43.8128 39.9829 44.2061C40.2096 44.5928 40.3229 45.0428 40.3229 45.5561C40.3229 46.0695 40.2096 46.5228 39.9829 46.9161C39.7629 47.3028 39.4596 47.6061 39.0729 47.8261C38.6863 48.0461 38.2563 48.1561 37.7829 48.1561ZM37.7829 47.0461C38.1163 47.0461 38.4063 46.9228 38.6529 46.6761C38.8996 46.4228 39.0229 46.0495 39.0229 45.5561C39.0229 45.0628 38.8996 44.6928 38.6529 44.4461C38.4063 44.1928 38.1196 44.0661 37.7929 44.0661C37.4529 44.0661 37.1596 44.1928 36.9129 44.4461C36.6729 44.6928 36.5529 45.0628 36.5529 45.5561C36.5529 46.0495 36.6729 46.4228 36.9129 46.6761C37.1596 46.9228 37.4496 47.0461 37.7829 47.0461ZM43.1774 48.1561C42.7507 48.1561 42.4007 48.0895 42.1274 47.9561C41.854 47.8161 41.6507 47.6328 41.5174 47.4061C41.384 47.1795 41.3174 46.9295 41.3174 46.6561C41.3174 46.1961 41.4974 45.8228 41.8574 45.5361C42.2174 45.2495 42.7574 45.1061 43.4774 45.1061H44.7374V44.9861C44.7374 44.6461 44.6407 44.3961 44.4474 44.2361C44.254 44.0761 44.014 43.9961 43.7274 43.9961C43.4674 43.9961 43.2407 44.0595 43.0474 44.1861C42.854 44.3061 42.734 44.4861 42.6874 44.7261H41.4374C41.4707 44.3661 41.5907 44.0528 41.7974 43.7861C42.0107 43.5195 42.284 43.3161 42.6174 43.1761C42.9507 43.0295 43.324 42.9561 43.7374 42.9561C44.444 42.9561 45.0007 43.1328 45.4074 43.4861C45.814 43.8395 46.0174 44.3395 46.0174 44.9861V48.0361H44.9274L44.8074 47.2361C44.6607 47.5028 44.454 47.7228 44.1874 47.8961C43.9274 48.0695 43.5907 48.1561 43.1774 48.1561ZM43.4674 47.1561C43.834 47.1561 44.1174 47.0361 44.3174 46.7961C44.524 46.5561 44.654 46.2595 44.7074 45.9061H43.6174C43.2774 45.9061 43.034 45.9695 42.8874 46.0961C42.7407 46.2161 42.6674 46.3661 42.6674 46.5461C42.6674 46.7395 42.7407 46.8895 42.8874 46.9961C43.034 47.1028 43.2274 47.1561 43.4674 47.1561ZM47.2389 48.0361V43.0761H48.3789L48.4989 44.0061C48.6789 43.6861 48.9222 43.4328 49.2289 43.2461C49.5422 43.0528 49.9089 42.9561 50.3289 42.9561V44.3061H49.9689C49.6889 44.3061 49.4389 44.3495 49.2189 44.4361C48.9989 44.5228 48.8255 44.6728 48.6989 44.8861C48.5789 45.0995 48.5189 45.3961 48.5189 45.7761V48.0361H47.2389ZM53.3958 48.1561C52.9292 48.1561 52.5125 48.0428 52.1458 47.8161C51.7792 47.5895 51.4892 47.2795 51.2758 46.8861C51.0625 46.4928 50.9558 46.0461 50.9558 45.5461C50.9558 45.0461 51.0625 44.6028 51.2758 44.2161C51.4892 43.8228 51.7792 43.5161 52.1458 43.2961C52.5125 43.0695 52.9292 42.9561 53.3958 42.9561C53.7692 42.9561 54.0958 43.0261 54.3758 43.1661C54.6558 43.3061 54.8825 43.5028 55.0558 43.7561V40.8361H56.3358V48.0361H55.1958L55.0558 47.3261C54.8958 47.5461 54.6825 47.7395 54.4158 47.9061C54.1558 48.0728 53.8158 48.1561 53.3958 48.1561ZM53.6658 47.0361C54.0792 47.0361 54.4158 46.8995 54.6758 46.6261C54.9425 46.3461 55.0758 45.9895 55.0758 45.5561C55.0758 45.1228 54.9425 44.7695 54.6758 44.4961C54.4158 44.2161 54.0792 44.0761 53.6658 44.0761C53.2592 44.0761 52.9225 44.2128 52.6558 44.4861C52.3892 44.7595 52.2558 45.1128 52.2558 45.5461C52.2558 45.9795 52.3892 46.3361 52.6558 46.6161C52.9225 46.8961 53.2592 47.0361 53.6658 47.0361Z" fill="#367CFF"/>
</svg>
